<?xml version="1.0" encoding="utf-8" standalone="no"?>
<!DOCTYPE svg PUBLIC "-//W3C//DTD SVG 1.1//EN"
  "http://www.w3.org/Graphics/SVG/1.1/DTD/svg11.dtd">
<svg xmlns:xlink="http://www.w3.org/1999/xlink" width="495.225364pt" height="310.96425pt" viewBox="0 0 495.225364 310.96425" xmlns="http://www.w3.org/2000/svg" version="1.1">
 <metadata>
  <rdf:RDF xmlns:dc="http://purl.org/dc/elements/1.1/" xmlns:cc="http://creativecommons.org/ns#" xmlns:rdf="http://www.w3.org/1999/02/22-rdf-syntax-ns#">
   <cc:Work>
    <dc:type rdf:resource="http://purl.org/dc/dcmitype/StillImage"/>
    <dc:date>2026-04-08T09:58:51.610759</dc:date>
    <dc:format>image/svg+xml</dc:format>
    <dc:creator>
     <cc:Agent>
      <dc:title>Matplotlib v3.10.0, https://matplotlib.org/</dc:title>
     </cc:Agent>
    </dc:creator>
   </cc:Work>
  </rdf:RDF>
 </metadata>
 <defs>
  <style type="text/css">*{stroke-linejoin: round; stroke-linecap: butt}</style>
 </defs>
 <g id="figure_1">
  <g id="patch_1">
   <path d="M 0 310.96425 
L 495.225364 310.96425 
L 495.225364 0 
L 0 0 
z
" style="fill: #ffffff"/>
  </g>
  <g id="axes_1">
   <g id="patch_2">
    <path d="M 45.478125 273.408 
L 488.025364 273.408 
L 488.025364 21.56 
L 45.478125 21.56 
z
" style="fill: #ffffff"/>
   </g>
   <g id="matplotlib.axis_1">
    <g id="xtick_1">
     <g id="line2d_1">
      <path d="M 266.751745 273.408 
L 266.751745 21.56 
" clip-path="url(#pa24d121588)" style="fill: none; stroke: #b0b0b0; stroke-opacity: 0.15; stroke-width: 0.8; stroke-linecap: square"/>
     </g>
     <g id="line2d_2">
      <defs>
       <path id="m0b57ecf829" d="M 0 0 
L 0 3.5 
" style="stroke: #000000; stroke-width: 0.8"/>
      </defs>
      <g>
       <use xlink:href="#m0b57ecf829" x="266.751745" y="273.408" style="stroke: #000000; stroke-width: 0.8"/>
      </g>
     </g>
     <g id="text_1">
      <!-- $\mathdefault{10^{2}}$ -->
      <g transform="translate(257.951745 288.006438) scale(0.1 -0.1)">
       <defs>
        <path id="DejaVuSans-31" d="M 794 531 
L 1825 531 
L 1825 4091 
L 703 3866 
L 703 4441 
L 1819 4666 
L 2450 4666 
L 2450 531 
L 3481 531 
L 3481 0 
L 794 0 
L 794 531 
z
" transform="scale(0.015625)"/>
        <path id="DejaVuSans-30" d="M 2034 4250 
Q 1547 4250 1301 3770 
Q 1056 3291 1056 2328 
Q 1056 1369 1301 889 
Q 1547 409 2034 409 
Q 2525 409 2770 889 
Q 3016 1369 3016 2328 
Q 3016 3291 2770 3770 
Q 2525 4250 2034 4250 
z
M 2034 4750 
Q 2819 4750 3233 4129 
Q 3647 3509 3647 2328 
Q 3647 1150 3233 529 
Q 2819 -91 2034 -91 
Q 1250 -91 836 529 
Q 422 1150 422 2328 
Q 422 3509 836 4129 
Q 1250 4750 2034 4750 
z
" transform="scale(0.015625)"/>
        <path id="DejaVuSans-32" d="M 1228 531 
L 3431 531 
L 3431 0 
L 469 0 
L 469 531 
Q 828 903 1448 1529 
Q 2069 2156 2228 2338 
Q 2531 2678 2651 2914 
Q 2772 3150 2772 3378 
Q 2772 3750 2511 3984 
Q 2250 4219 1831 4219 
Q 1534 4219 1204 4116 
Q 875 4013 500 3803 
L 500 4441 
Q 881 4594 1212 4672 
Q 1544 4750 1819 4750 
Q 2544 4750 2975 4387 
Q 3406 4025 3406 3419 
Q 3406 3131 3298 2873 
Q 3191 2616 2906 2266 
Q 2828 2175 2409 1742 
Q 1991 1309 1228 531 
z
" transform="scale(0.015625)"/>
       </defs>
       <use xlink:href="#DejaVuSans-31" transform="translate(0 0.765625)"/>
       <use xlink:href="#DejaVuSans-30" transform="translate(63.623047 0.765625)"/>
       <use xlink:href="#DejaVuSans-32" transform="translate(128.203125 39.046875) scale(0.7)"/>
      </g>
     </g>
    </g>
    <g id="xtick_2">
     <g id="line2d_3">
      <path d="M 65.593909 273.408 
L 65.593909 21.56 
" clip-path="url(#pa24d121588)" style="fill: none; stroke: #b0b0b0; stroke-opacity: 0.15; stroke-width: 0.8; stroke-linecap: square"/>
     </g>
     <g id="line2d_4">
      <defs>
       <path id="me62d9babca" d="M 0 0 
L 0 2 
" style="stroke: #000000; stroke-width: 0.6"/>
      </defs>
      <g>
       <use xlink:href="#me62d9babca" x="65.593909" y="273.408" style="stroke: #000000; stroke-width: 0.6"/>
      </g>
     </g>
    </g>
    <g id="xtick_3">
     <g id="line2d_5">
      <path d="M 118.505341 273.408 
L 118.505341 21.56 
" clip-path="url(#pa24d121588)" style="fill: none; stroke: #b0b0b0; stroke-opacity: 0.15; stroke-width: 0.8; stroke-linecap: square"/>
     </g>
     <g id="line2d_6">
      <g>
       <use xlink:href="#me62d9babca" x="118.505341" y="273.408" style="stroke: #000000; stroke-width: 0.6"/>
      </g>
     </g>
     <g id="text_2">
      <!-- $\mathdefault{6\times10^{1}}$ -->
      <g transform="translate(100.405341 286.406437) scale(0.1 -0.1)">
       <defs>
        <path id="DejaVuSans-36" d="M 2113 2584 
Q 1688 2584 1439 2293 
Q 1191 2003 1191 1497 
Q 1191 994 1439 701 
Q 1688 409 2113 409 
Q 2538 409 2786 701 
Q 3034 994 3034 1497 
Q 3034 2003 2786 2293 
Q 2538 2584 2113 2584 
z
M 3366 4563 
L 3366 3988 
Q 3128 4100 2886 4159 
Q 2644 4219 2406 4219 
Q 1781 4219 1451 3797 
Q 1122 3375 1075 2522 
Q 1259 2794 1537 2939 
Q 1816 3084 2150 3084 
Q 2853 3084 3261 2657 
Q 3669 2231 3669 1497 
Q 3669 778 3244 343 
Q 2819 -91 2113 -91 
Q 1303 -91 875 529 
Q 447 1150 447 2328 
Q 447 3434 972 4092 
Q 1497 4750 2381 4750 
Q 2619 4750 2861 4703 
Q 3103 4656 3366 4563 
z
" transform="scale(0.015625)"/>
        <path id="DejaVuSans-d7" d="M 4488 3438 
L 3059 2003 
L 4488 575 
L 4116 197 
L 2681 1631 
L 1247 197 
L 878 575 
L 2303 2003 
L 878 3438 
L 1247 3816 
L 2681 2381 
L 4116 3816 
L 4488 3438 
z
" transform="scale(0.015625)"/>
       </defs>
       <use xlink:href="#DejaVuSans-36" transform="translate(0 0.684375)"/>
       <use xlink:href="#DejaVuSans-d7" transform="translate(83.105469 0.684375)"/>
       <use xlink:href="#DejaVuSans-31" transform="translate(186.376953 0.684375)"/>
       <use xlink:href="#DejaVuSans-30" transform="translate(250 0.684375)"/>
       <use xlink:href="#DejaVuSans-31" transform="translate(314.580078 38.965625) scale(0.7)"/>
      </g>
     </g>
    </g>
    <g id="xtick_4">
     <g id="line2d_7">
      <path d="M 163.241319 273.408 
L 163.241319 21.56 
" clip-path="url(#pa24d121588)" style="fill: none; stroke: #b0b0b0; stroke-opacity: 0.15; stroke-width: 0.8; stroke-linecap: square"/>
     </g>
     <g id="line2d_8">
      <g>
       <use xlink:href="#me62d9babca" x="163.241319" y="273.408" style="stroke: #000000; stroke-width: 0.6"/>
      </g>
     </g>
    </g>
    <g id="xtick_5">
     <g id="line2d_9">
      <path d="M 201.993386 273.408 
L 201.993386 21.56 
" clip-path="url(#pa24d121588)" style="fill: none; stroke: #b0b0b0; stroke-opacity: 0.15; stroke-width: 0.8; stroke-linecap: square"/>
     </g>
     <g id="line2d_10">
      <g>
       <use xlink:href="#me62d9babca" x="201.993386" y="273.408" style="stroke: #000000; stroke-width: 0.6"/>
      </g>
     </g>
    </g>
    <g id="xtick_6">
     <g id="line2d_11">
      <path d="M 236.175131 273.408 
L 236.175131 21.56 
" clip-path="url(#pa24d121588)" style="fill: none; stroke: #b0b0b0; stroke-opacity: 0.15; stroke-width: 0.8; stroke-linecap: square"/>
     </g>
     <g id="line2d_12">
      <g>
       <use xlink:href="#me62d9babca" x="236.175131" y="273.408" style="stroke: #000000; stroke-width: 0.6"/>
      </g>
     </g>
    </g>
    <g id="xtick_7">
     <g id="line2d_13">
      <path d="M 467.909581 273.408 
L 467.909581 21.56 
" clip-path="url(#pa24d121588)" style="fill: none; stroke: #b0b0b0; stroke-opacity: 0.15; stroke-width: 0.8; stroke-linecap: square"/>
     </g>
     <g id="line2d_14">
      <g>
       <use xlink:href="#me62d9babca" x="467.909581" y="273.408" style="stroke: #000000; stroke-width: 0.6"/>
      </g>
     </g>
     <g id="text_3">
      <!-- $\mathdefault{2\times10^{2}}$ -->
      <g transform="translate(449.809581 286.406437) scale(0.1 -0.1)">
       <use xlink:href="#DejaVuSans-32" transform="translate(0 0.765625)"/>
       <use xlink:href="#DejaVuSans-d7" transform="translate(83.105469 0.765625)"/>
       <use xlink:href="#DejaVuSans-31" transform="translate(186.376953 0.765625)"/>
       <use xlink:href="#DejaVuSans-30" transform="translate(250 0.765625)"/>
       <use xlink:href="#DejaVuSans-32" transform="translate(314.580078 39.046875) scale(0.7)"/>
      </g>
     </g>
    </g>
    <g id="text_4">
     <!-- $N$ -->
     <g transform="translate(263.001745 301.684562) scale(0.1 -0.1)">
      <defs>
       <path id="DejaVuSans-Oblique-4e" d="M 1081 4666 
L 1931 4666 
L 3219 666 
L 4000 4666 
L 4616 4666 
L 3706 0 
L 2853 0 
L 1569 4025 
L 788 0 
L 172 0 
L 1081 4666 
z
" transform="scale(0.015625)"/>
      </defs>
      <use xlink:href="#DejaVuSans-Oblique-4e" transform="translate(0 0.09375)"/>
     </g>
    </g>
   </g>
   <g id="matplotlib.axis_2">
    <g id="ytick_1">
     <g id="line2d_15">
      <path d="M 45.478125 261.960364 
L 488.025364 261.960364 
" clip-path="url(#pa24d121588)" style="fill: none; stroke: #b0b0b0; stroke-opacity: 0.15; stroke-width: 0.8; stroke-linecap: square"/>
     </g>
     <g id="line2d_16">
      <defs>
       <path id="m7906d8629b" d="M 0 0 
L -3.5 0 
" style="stroke: #000000; stroke-width: 0.8"/>
      </defs>
      <g>
       <use xlink:href="#m7906d8629b" x="45.478125" y="261.960364" style="stroke: #000000; stroke-width: 0.8"/>
      </g>
     </g>
     <g id="text_5">
      <!-- $\mathdefault{10^{0}}$ -->
      <g transform="translate(20.878125 265.759582) scale(0.1 -0.1)">
       <use xlink:href="#DejaVuSans-31" transform="translate(0 0.765625)"/>
       <use xlink:href="#DejaVuSans-30" transform="translate(63.623047 0.765625)"/>
       <use xlink:href="#DejaVuSans-30" transform="translate(128.203125 39.046875) scale(0.7)"/>
      </g>
     </g>
    </g>
    <g id="ytick_2">
     <g id="line2d_17">
      <path d="M 45.478125 98.373455 
L 488.025364 98.373455 
" clip-path="url(#pa24d121588)" style="fill: none; stroke: #b0b0b0; stroke-opacity: 0.15; stroke-width: 0.8; stroke-linecap: square"/>
     </g>
     <g id="line2d_18">
      <g>
       <use xlink:href="#m7906d8629b" x="45.478125" y="98.373455" style="stroke: #000000; stroke-width: 0.8"/>
      </g>
     </g>
     <g id="text_6">
      <!-- $\mathdefault{10^{1}}$ -->
      <g transform="translate(20.878125 102.172674) scale(0.1 -0.1)">
       <use xlink:href="#DejaVuSans-31" transform="translate(0 0.684375)"/>
       <use xlink:href="#DejaVuSans-30" transform="translate(63.623047 0.684375)"/>
       <use xlink:href="#DejaVuSans-31" transform="translate(128.203125 38.965625) scale(0.7)"/>
      </g>
     </g>
    </g>
    <g id="ytick_3">
     <g id="line2d_19">
      <path d="M 45.478125 269.44569 
L 488.025364 269.44569 
" clip-path="url(#pa24d121588)" style="fill: none; stroke: #b0b0b0; stroke-opacity: 0.15; stroke-width: 0.8; stroke-linecap: square"/>
     </g>
     <g id="line2d_20">
      <defs>
       <path id="m85e01507f8" d="M 0 0 
L -2 0 
" style="stroke: #000000; stroke-width: 0.6"/>
      </defs>
      <g>
       <use xlink:href="#m85e01507f8" x="45.478125" y="269.44569" style="stroke: #000000; stroke-width: 0.6"/>
      </g>
     </g>
    </g>
    <g id="ytick_4">
     <g id="line2d_21">
      <path d="M 45.478125 212.715797 
L 488.025364 212.715797 
" clip-path="url(#pa24d121588)" style="fill: none; stroke: #b0b0b0; stroke-opacity: 0.15; stroke-width: 0.8; stroke-linecap: square"/>
     </g>
     <g id="line2d_22">
      <g>
       <use xlink:href="#m85e01507f8" x="45.478125" y="212.715797" style="stroke: #000000; stroke-width: 0.6"/>
      </g>
     </g>
    </g>
    <g id="ytick_5">
     <g id="line2d_23">
      <path d="M 45.478125 183.909573 
L 488.025364 183.909573 
" clip-path="url(#pa24d121588)" style="fill: none; stroke: #b0b0b0; stroke-opacity: 0.15; stroke-width: 0.8; stroke-linecap: square"/>
     </g>
     <g id="line2d_24">
      <g>
       <use xlink:href="#m85e01507f8" x="45.478125" y="183.909573" style="stroke: #000000; stroke-width: 0.6"/>
      </g>
     </g>
    </g>
    <g id="ytick_6">
     <g id="line2d_25">
      <path d="M 45.478125 163.471231 
L 488.025364 163.471231 
" clip-path="url(#pa24d121588)" style="fill: none; stroke: #b0b0b0; stroke-opacity: 0.15; stroke-width: 0.8; stroke-linecap: square"/>
     </g>
     <g id="line2d_26">
      <g>
       <use xlink:href="#m85e01507f8" x="45.478125" y="163.471231" style="stroke: #000000; stroke-width: 0.6"/>
      </g>
     </g>
    </g>
    <g id="ytick_7">
     <g id="line2d_27">
      <path d="M 45.478125 147.618022 
L 488.025364 147.618022 
" clip-path="url(#pa24d121588)" style="fill: none; stroke: #b0b0b0; stroke-opacity: 0.15; stroke-width: 0.8; stroke-linecap: square"/>
     </g>
     <g id="line2d_28">
      <g>
       <use xlink:href="#m85e01507f8" x="45.478125" y="147.618022" style="stroke: #000000; stroke-width: 0.6"/>
      </g>
     </g>
    </g>
    <g id="ytick_8">
     <g id="line2d_29">
      <path d="M 45.478125 134.665006 
L 488.025364 134.665006 
" clip-path="url(#pa24d121588)" style="fill: none; stroke: #b0b0b0; stroke-opacity: 0.15; stroke-width: 0.8; stroke-linecap: square"/>
     </g>
     <g id="line2d_30">
      <g>
       <use xlink:href="#m85e01507f8" x="45.478125" y="134.665006" style="stroke: #000000; stroke-width: 0.6"/>
      </g>
     </g>
    </g>
    <g id="ytick_9">
     <g id="line2d_31">
      <path d="M 45.478125 123.713388 
L 488.025364 123.713388 
" clip-path="url(#pa24d121588)" style="fill: none; stroke: #b0b0b0; stroke-opacity: 0.15; stroke-width: 0.8; stroke-linecap: square"/>
     </g>
     <g id="line2d_32">
      <g>
       <use xlink:href="#m85e01507f8" x="45.478125" y="123.713388" style="stroke: #000000; stroke-width: 0.6"/>
      </g>
     </g>
    </g>
    <g id="ytick_10">
     <g id="line2d_33">
      <path d="M 45.478125 114.226665 
L 488.025364 114.226665 
" clip-path="url(#pa24d121588)" style="fill: none; stroke: #b0b0b0; stroke-opacity: 0.15; stroke-width: 0.8; stroke-linecap: square"/>
     </g>
     <g id="line2d_34">
      <g>
       <use xlink:href="#m85e01507f8" x="45.478125" y="114.226665" style="stroke: #000000; stroke-width: 0.6"/>
      </g>
     </g>
    </g>
    <g id="ytick_11">
     <g id="line2d_35">
      <path d="M 45.478125 105.858782 
L 488.025364 105.858782 
" clip-path="url(#pa24d121588)" style="fill: none; stroke: #b0b0b0; stroke-opacity: 0.15; stroke-width: 0.8; stroke-linecap: square"/>
     </g>
     <g id="line2d_36">
      <g>
       <use xlink:href="#m85e01507f8" x="45.478125" y="105.858782" style="stroke: #000000; stroke-width: 0.6"/>
      </g>
     </g>
    </g>
    <g id="ytick_12">
     <g id="line2d_37">
      <path d="M 45.478125 49.128889 
L 488.025364 49.128889 
" clip-path="url(#pa24d121588)" style="fill: none; stroke: #b0b0b0; stroke-opacity: 0.15; stroke-width: 0.8; stroke-linecap: square"/>
     </g>
     <g id="line2d_38">
      <g>
       <use xlink:href="#m85e01507f8" x="45.478125" y="49.128889" style="stroke: #000000; stroke-width: 0.6"/>
      </g>
     </g>
    </g>
    <g id="text_7">
     <!-- time (ms) -->
     <g transform="translate(14.798438 171.745719) rotate(-90) scale(0.1 -0.1)">
      <defs>
       <path id="DejaVuSans-74" d="M 1172 4494 
L 1172 3500 
L 2356 3500 
L 2356 3053 
L 1172 3053 
L 1172 1153 
Q 1172 725 1289 603 
Q 1406 481 1766 481 
L 2356 481 
L 2356 0 
L 1766 0 
Q 1100 0 847 248 
Q 594 497 594 1153 
L 594 3053 
L 172 3053 
L 172 3500 
L 594 3500 
L 594 4494 
L 1172 4494 
z
" transform="scale(0.015625)"/>
       <path id="DejaVuSans-69" d="M 603 3500 
L 1178 3500 
L 1178 0 
L 603 0 
L 603 3500 
z
M 603 4863 
L 1178 4863 
L 1178 4134 
L 603 4134 
L 603 4863 
z
" transform="scale(0.015625)"/>
       <path id="DejaVuSans-6d" d="M 3328 2828 
Q 3544 3216 3844 3400 
Q 4144 3584 4550 3584 
Q 5097 3584 5394 3201 
Q 5691 2819 5691 2113 
L 5691 0 
L 5113 0 
L 5113 2094 
Q 5113 2597 4934 2840 
Q 4756 3084 4391 3084 
Q 3944 3084 3684 2787 
Q 3425 2491 3425 1978 
L 3425 0 
L 2847 0 
L 2847 2094 
Q 2847 2600 2669 2842 
Q 2491 3084 2119 3084 
Q 1678 3084 1418 2786 
Q 1159 2488 1159 1978 
L 1159 0 
L 581 0 
L 581 3500 
L 1159 3500 
L 1159 2956 
Q 1356 3278 1631 3431 
Q 1906 3584 2284 3584 
Q 2666 3584 2933 3390 
Q 3200 3197 3328 2828 
z
" transform="scale(0.015625)"/>
       <path id="DejaVuSans-65" d="M 3597 1894 
L 3597 1613 
L 953 1613 
Q 991 1019 1311 708 
Q 1631 397 2203 397 
Q 2534 397 2845 478 
Q 3156 559 3463 722 
L 3463 178 
Q 3153 47 2828 -22 
Q 2503 -91 2169 -91 
Q 1331 -91 842 396 
Q 353 884 353 1716 
Q 353 2575 817 3079 
Q 1281 3584 2069 3584 
Q 2775 3584 3186 3129 
Q 3597 2675 3597 1894 
z
M 3022 2063 
Q 3016 2534 2758 2815 
Q 2500 3097 2075 3097 
Q 1594 3097 1305 2825 
Q 1016 2553 972 2059 
L 3022 2063 
z
" transform="scale(0.015625)"/>
       <path id="DejaVuSans-20" transform="scale(0.015625)"/>
       <path id="DejaVuSans-28" d="M 1984 4856 
Q 1566 4138 1362 3434 
Q 1159 2731 1159 2009 
Q 1159 1288 1364 580 
Q 1569 -128 1984 -844 
L 1484 -844 
Q 1016 -109 783 600 
Q 550 1309 550 2009 
Q 550 2706 781 3412 
Q 1013 4119 1484 4856 
L 1984 4856 
z
" transform="scale(0.015625)"/>
       <path id="DejaVuSans-73" d="M 2834 3397 
L 2834 2853 
Q 2591 2978 2328 3040 
Q 2066 3103 1784 3103 
Q 1356 3103 1142 2972 
Q 928 2841 928 2578 
Q 928 2378 1081 2264 
Q 1234 2150 1697 2047 
L 1894 2003 
Q 2506 1872 2764 1633 
Q 3022 1394 3022 966 
Q 3022 478 2636 193 
Q 2250 -91 1575 -91 
Q 1294 -91 989 -36 
Q 684 19 347 128 
L 347 722 
Q 666 556 975 473 
Q 1284 391 1588 391 
Q 1994 391 2212 530 
Q 2431 669 2431 922 
Q 2431 1156 2273 1281 
Q 2116 1406 1581 1522 
L 1381 1569 
Q 847 1681 609 1914 
Q 372 2147 372 2553 
Q 372 3047 722 3315 
Q 1072 3584 1716 3584 
Q 2034 3584 2315 3537 
Q 2597 3491 2834 3397 
z
" transform="scale(0.015625)"/>
       <path id="DejaVuSans-29" d="M 513 4856 
L 1013 4856 
Q 1481 4119 1714 3412 
Q 1947 2706 1947 2009 
Q 1947 1309 1714 600 
Q 1481 -109 1013 -844 
L 513 -844 
Q 928 -128 1133 580 
Q 1338 1288 1338 2009 
Q 1338 2731 1133 3434 
Q 928 4138 513 4856 
z
" transform="scale(0.015625)"/>
      </defs>
      <use xlink:href="#DejaVuSans-74"/>
      <use xlink:href="#DejaVuSans-69" transform="translate(39.208984 0)"/>
      <use xlink:href="#DejaVuSans-6d" transform="translate(66.992188 0)"/>
      <use xlink:href="#DejaVuSans-65" transform="translate(164.404297 0)"/>
      <use xlink:href="#DejaVuSans-20" transform="translate(225.927734 0)"/>
      <use xlink:href="#DejaVuSans-28" transform="translate(257.714844 0)"/>
      <use xlink:href="#DejaVuSans-6d" transform="translate(296.728516 0)"/>
      <use xlink:href="#DejaVuSans-73" transform="translate(394.140625 0)"/>
      <use xlink:href="#DejaVuSans-29" transform="translate(446.240234 0)"/>
     </g>
    </g>
   </g>
   <g id="line2d_39">
    <path d="M 65.593909 261.960364 
L 266.751745 183.909573 
L 467.909581 91.602154 
" clip-path="url(#pa24d121588)" style="fill: none; stroke-dasharray: 9.6,2.4,1.5,2.4; stroke-dashoffset: 0; stroke: #ff9800; stroke-width: 1.5"/>
    <defs>
     <path id="mded448f59f" d="M 0 -3.5 
L -3.328698 -1.081559 
L -2.057248 2.831559 
L 2.057248 2.831559 
L 3.328698 -1.081559 
z
" style="stroke: #ff9800; stroke-linejoin: miter"/>
    </defs>
    <g clip-path="url(#pa24d121588)">
     <use xlink:href="#mded448f59f" x="65.593909" y="261.960364" style="fill: #ff9800; stroke: #ff9800; stroke-linejoin: miter"/>
     <use xlink:href="#mded448f59f" x="266.751745" y="183.909573" style="fill: #ff9800; stroke: #ff9800; stroke-linejoin: miter"/>
     <use xlink:href="#mded448f59f" x="467.909581" y="91.602154" style="fill: #ff9800; stroke: #ff9800; stroke-linejoin: miter"/>
    </g>
   </g>
   <g id="line2d_40">
    <path d="M 65.593909 146.947689 
L 266.751745 96.436423 
L 467.909581 41.523527 
" clip-path="url(#pa24d121588)" style="fill: none; stroke: #5b9bd5; stroke-width: 2; stroke-linecap: square"/>
    <defs>
     <path id="m4201f3b691" d="M 0 3 
C 0.795609 3 1.55874 2.683901 2.12132 2.12132 
C 2.683901 1.55874 3 0.795609 3 0 
C 3 -0.795609 2.683901 -1.55874 2.12132 -2.12132 
C 1.55874 -2.683901 0.795609 -3 0 -3 
C -0.795609 -3 -1.55874 -2.683901 -2.12132 -2.12132 
C -2.683901 -1.55874 -3 -0.795609 -3 0 
C -3 0.795609 -2.683901 1.55874 -2.12132 2.12132 
C -1.55874 2.683901 -0.795609 3 0 3 
z
" style="stroke: #5b9bd5"/>
    </defs>
    <g clip-path="url(#pa24d121588)">
     <use xlink:href="#m4201f3b691" x="65.593909" y="146.947689" style="fill: #5b9bd5; stroke: #5b9bd5"/>
     <use xlink:href="#m4201f3b691" x="266.751745" y="96.436423" style="fill: #5b9bd5; stroke: #5b9bd5"/>
     <use xlink:href="#m4201f3b691" x="467.909581" y="41.523527" style="fill: #5b9bd5; stroke: #5b9bd5"/>
    </g>
   </g>
   <g id="line2d_41">
    <path d="M 65.593909 170.171523 
L 266.751745 131.664851 
L 467.909581 103.248663 
" clip-path="url(#pa24d121588)" style="fill: none; stroke: #c0504d; stroke-width: 2; stroke-linecap: square"/>
    <defs>
     <path id="mc38ec7a924" d="M 0 -3 
L -3 3 
L 3 3 
z
" style="stroke: #c0504d; stroke-linejoin: miter"/>
    </defs>
    <g clip-path="url(#pa24d121588)">
     <use xlink:href="#mc38ec7a924" x="65.593909" y="170.171523" style="fill: #c0504d; stroke: #c0504d; stroke-linejoin: miter"/>
     <use xlink:href="#mc38ec7a924" x="266.751745" y="131.664851" style="fill: #c0504d; stroke: #c0504d; stroke-linejoin: miter"/>
     <use xlink:href="#mc38ec7a924" x="467.909581" y="103.248663" style="fill: #c0504d; stroke: #c0504d; stroke-linejoin: miter"/>
    </g>
   </g>
   <g id="line2d_42">
    <path d="M 65.593909 239.237749 
L 266.751745 139.954596 
L 467.909581 33.007636 
" clip-path="url(#pa24d121588)" style="fill: none; stroke: #808080; stroke-linecap: square"/>
    <defs>
     <path id="m725564e314" d="M 0 1 
C 0.265203 1 0.51958 0.894634 0.707107 0.707107 
C 0.894634 0.51958 1 0.265203 1 0 
C 1 -0.265203 0.894634 -0.51958 0.707107 -0.707107 
C 0.51958 -0.894634 0.265203 -1 0 -1 
C -0.265203 -1 -0.51958 -0.894634 -0.707107 -0.707107 
C -0.894634 -0.51958 -1 -0.265203 -1 0 
C -1 0.265203 -0.894634 0.51958 -0.707107 0.707107 
C -0.51958 0.894634 -0.265203 1 0 1 
z
" style="stroke: #808080"/>
    </defs>
    <g clip-path="url(#pa24d121588)">
     <use xlink:href="#m725564e314" x="65.593909" y="239.237749" style="fill: #808080; stroke: #808080"/>
     <use xlink:href="#m725564e314" x="266.751745" y="139.954596" style="fill: #808080; stroke: #808080"/>
     <use xlink:href="#m725564e314" x="467.909581" y="33.007636" style="fill: #808080; stroke: #808080"/>
    </g>
   </g>
   <g id="patch_3">
    <path d="M 45.478125 273.408 
L 45.478125 21.56 
" style="fill: none; stroke: #000000; stroke-width: 0.8; stroke-linejoin: miter; stroke-linecap: square"/>
   </g>
   <g id="patch_4">
    <path d="M 488.025364 273.408 
L 488.025364 21.56 
" style="fill: none; stroke: #000000; stroke-width: 0.8; stroke-linejoin: miter; stroke-linecap: square"/>
   </g>
   <g id="patch_5">
    <path d="M 45.478125 273.408 
L 488.025364 273.408 
" style="fill: none; stroke: #000000; stroke-width: 0.8; stroke-linejoin: miter; stroke-linecap: square"/>
   </g>
   <g id="patch_6">
    <path d="M 45.478125 21.56 
L 488.025364 21.56 
" style="fill: none; stroke: #000000; stroke-width: 0.8; stroke-linejoin: miter; stroke-linecap: square"/>
   </g>
   <g id="text_8">
    <!-- Computing Inclusion Probabilities $\pi$ -->
    <g transform="translate(169.786745 15.56) scale(0.11 -0.11)">
     <defs>
      <path id="DejaVuSans-43" d="M 4122 4306 
L 4122 3641 
Q 3803 3938 3442 4084 
Q 3081 4231 2675 4231 
Q 1875 4231 1450 3742 
Q 1025 3253 1025 2328 
Q 1025 1406 1450 917 
Q 1875 428 2675 428 
Q 3081 428 3442 575 
Q 3803 722 4122 1019 
L 4122 359 
Q 3791 134 3420 21 
Q 3050 -91 2638 -91 
Q 1578 -91 968 557 
Q 359 1206 359 2328 
Q 359 3453 968 4101 
Q 1578 4750 2638 4750 
Q 3056 4750 3426 4639 
Q 3797 4528 4122 4306 
z
" transform="scale(0.015625)"/>
      <path id="DejaVuSans-6f" d="M 1959 3097 
Q 1497 3097 1228 2736 
Q 959 2375 959 1747 
Q 959 1119 1226 758 
Q 1494 397 1959 397 
Q 2419 397 2687 759 
Q 2956 1122 2956 1747 
Q 2956 2369 2687 2733 
Q 2419 3097 1959 3097 
z
M 1959 3584 
Q 2709 3584 3137 3096 
Q 3566 2609 3566 1747 
Q 3566 888 3137 398 
Q 2709 -91 1959 -91 
Q 1206 -91 779 398 
Q 353 888 353 1747 
Q 353 2609 779 3096 
Q 1206 3584 1959 3584 
z
" transform="scale(0.015625)"/>
      <path id="DejaVuSans-70" d="M 1159 525 
L 1159 -1331 
L 581 -1331 
L 581 3500 
L 1159 3500 
L 1159 2969 
Q 1341 3281 1617 3432 
Q 1894 3584 2278 3584 
Q 2916 3584 3314 3078 
Q 3713 2572 3713 1747 
Q 3713 922 3314 415 
Q 2916 -91 2278 -91 
Q 1894 -91 1617 61 
Q 1341 213 1159 525 
z
M 3116 1747 
Q 3116 2381 2855 2742 
Q 2594 3103 2138 3103 
Q 1681 3103 1420 2742 
Q 1159 2381 1159 1747 
Q 1159 1113 1420 752 
Q 1681 391 2138 391 
Q 2594 391 2855 752 
Q 3116 1113 3116 1747 
z
" transform="scale(0.015625)"/>
      <path id="DejaVuSans-75" d="M 544 1381 
L 544 3500 
L 1119 3500 
L 1119 1403 
Q 1119 906 1312 657 
Q 1506 409 1894 409 
Q 2359 409 2629 706 
Q 2900 1003 2900 1516 
L 2900 3500 
L 3475 3500 
L 3475 0 
L 2900 0 
L 2900 538 
Q 2691 219 2414 64 
Q 2138 -91 1772 -91 
Q 1169 -91 856 284 
Q 544 659 544 1381 
z
M 1991 3584 
L 1991 3584 
z
" transform="scale(0.015625)"/>
      <path id="DejaVuSans-6e" d="M 3513 2113 
L 3513 0 
L 2938 0 
L 2938 2094 
Q 2938 2591 2744 2837 
Q 2550 3084 2163 3084 
Q 1697 3084 1428 2787 
Q 1159 2491 1159 1978 
L 1159 0 
L 581 0 
L 581 3500 
L 1159 3500 
L 1159 2956 
Q 1366 3272 1645 3428 
Q 1925 3584 2291 3584 
Q 2894 3584 3203 3211 
Q 3513 2838 3513 2113 
z
" transform="scale(0.015625)"/>
      <path id="DejaVuSans-67" d="M 2906 1791 
Q 2906 2416 2648 2759 
Q 2391 3103 1925 3103 
Q 1463 3103 1205 2759 
Q 947 2416 947 1791 
Q 947 1169 1205 825 
Q 1463 481 1925 481 
Q 2391 481 2648 825 
Q 2906 1169 2906 1791 
z
M 3481 434 
Q 3481 -459 3084 -895 
Q 2688 -1331 1869 -1331 
Q 1566 -1331 1297 -1286 
Q 1028 -1241 775 -1147 
L 775 -588 
Q 1028 -725 1275 -790 
Q 1522 -856 1778 -856 
Q 2344 -856 2625 -561 
Q 2906 -266 2906 331 
L 2906 616 
Q 2728 306 2450 153 
Q 2172 0 1784 0 
Q 1141 0 747 490 
Q 353 981 353 1791 
Q 353 2603 747 3093 
Q 1141 3584 1784 3584 
Q 2172 3584 2450 3431 
Q 2728 3278 2906 2969 
L 2906 3500 
L 3481 3500 
L 3481 434 
z
" transform="scale(0.015625)"/>
      <path id="DejaVuSans-49" d="M 628 4666 
L 1259 4666 
L 1259 0 
L 628 0 
L 628 4666 
z
" transform="scale(0.015625)"/>
      <path id="DejaVuSans-63" d="M 3122 3366 
L 3122 2828 
Q 2878 2963 2633 3030 
Q 2388 3097 2138 3097 
Q 1578 3097 1268 2742 
Q 959 2388 959 1747 
Q 959 1106 1268 751 
Q 1578 397 2138 397 
Q 2388 397 2633 464 
Q 2878 531 3122 666 
L 3122 134 
Q 2881 22 2623 -34 
Q 2366 -91 2075 -91 
Q 1284 -91 818 406 
Q 353 903 353 1747 
Q 353 2603 823 3093 
Q 1294 3584 2113 3584 
Q 2378 3584 2631 3529 
Q 2884 3475 3122 3366 
z
" transform="scale(0.015625)"/>
      <path id="DejaVuSans-6c" d="M 603 4863 
L 1178 4863 
L 1178 0 
L 603 0 
L 603 4863 
z
" transform="scale(0.015625)"/>
      <path id="DejaVuSans-50" d="M 1259 4147 
L 1259 2394 
L 2053 2394 
Q 2494 2394 2734 2622 
Q 2975 2850 2975 3272 
Q 2975 3691 2734 3919 
Q 2494 4147 2053 4147 
L 1259 4147 
z
M 628 4666 
L 2053 4666 
Q 2838 4666 3239 4311 
Q 3641 3956 3641 3272 
Q 3641 2581 3239 2228 
Q 2838 1875 2053 1875 
L 1259 1875 
L 1259 0 
L 628 0 
L 628 4666 
z
" transform="scale(0.015625)"/>
      <path id="DejaVuSans-72" d="M 2631 2963 
Q 2534 3019 2420 3045 
Q 2306 3072 2169 3072 
Q 1681 3072 1420 2755 
Q 1159 2438 1159 1844 
L 1159 0 
L 581 0 
L 581 3500 
L 1159 3500 
L 1159 2956 
Q 1341 3275 1631 3429 
Q 1922 3584 2338 3584 
Q 2397 3584 2469 3576 
Q 2541 3569 2628 3553 
L 2631 2963 
z
" transform="scale(0.015625)"/>
      <path id="DejaVuSans-62" d="M 3116 1747 
Q 3116 2381 2855 2742 
Q 2594 3103 2138 3103 
Q 1681 3103 1420 2742 
Q 1159 2381 1159 1747 
Q 1159 1113 1420 752 
Q 1681 391 2138 391 
Q 2594 391 2855 752 
Q 3116 1113 3116 1747 
z
M 1159 2969 
Q 1341 3281 1617 3432 
Q 1894 3584 2278 3584 
Q 2916 3584 3314 3078 
Q 3713 2572 3713 1747 
Q 3713 922 3314 415 
Q 2916 -91 2278 -91 
Q 1894 -91 1617 61 
Q 1341 213 1159 525 
L 1159 0 
L 581 0 
L 581 4863 
L 1159 4863 
L 1159 2969 
z
" transform="scale(0.015625)"/>
      <path id="DejaVuSans-61" d="M 2194 1759 
Q 1497 1759 1228 1600 
Q 959 1441 959 1056 
Q 959 750 1161 570 
Q 1363 391 1709 391 
Q 2188 391 2477 730 
Q 2766 1069 2766 1631 
L 2766 1759 
L 2194 1759 
z
M 3341 1997 
L 3341 0 
L 2766 0 
L 2766 531 
Q 2569 213 2275 61 
Q 1981 -91 1556 -91 
Q 1019 -91 701 211 
Q 384 513 384 1019 
Q 384 1609 779 1909 
Q 1175 2209 1959 2209 
L 2766 2209 
L 2766 2266 
Q 2766 2663 2505 2880 
Q 2244 3097 1772 3097 
Q 1472 3097 1187 3025 
Q 903 2953 641 2809 
L 641 3341 
Q 956 3463 1253 3523 
Q 1550 3584 1831 3584 
Q 2591 3584 2966 3190 
Q 3341 2797 3341 1997 
z
" transform="scale(0.015625)"/>
      <path id="DejaVuSans-Oblique-3c0" d="M 584 3500 
L 3938 3500 
L 3825 2925 
L 3384 2925 
L 2966 775 
Q 2922 550 2981 450 
Q 3038 353 3209 353 
Q 3256 353 3325 363 
Q 3397 369 3419 372 
L 3338 -44 
Q 3222 -84 3103 -103 
Q 2981 -122 2866 -122 
Q 2491 -122 2388 81 
Q 2284 288 2391 838 
L 2797 2925 
L 1506 2925 
L 938 0 
L 350 0 
L 919 2925 
L 472 2925 
L 584 3500 
z
" transform="scale(0.015625)"/>
     </defs>
     <use xlink:href="#DejaVuSans-43" transform="translate(0 0.015625)"/>
     <use xlink:href="#DejaVuSans-6f" transform="translate(69.824219 0.015625)"/>
     <use xlink:href="#DejaVuSans-6d" transform="translate(131.005859 0.015625)"/>
     <use xlink:href="#DejaVuSans-70" transform="translate(228.417969 0.015625)"/>
     <use xlink:href="#DejaVuSans-75" transform="translate(291.894531 0.015625)"/>
     <use xlink:href="#DejaVuSans-74" transform="translate(355.273438 0.015625)"/>
     <use xlink:href="#DejaVuSans-69" transform="translate(394.482422 0.015625)"/>
     <use xlink:href="#DejaVuSans-6e" transform="translate(422.265625 0.015625)"/>
     <use xlink:href="#DejaVuSans-67" transform="translate(485.644531 0.015625)"/>
     <use xlink:href="#DejaVuSans-20" transform="translate(549.121094 0.015625)"/>
     <use xlink:href="#DejaVuSans-49" transform="translate(580.908203 0.015625)"/>
     <use xlink:href="#DejaVuSans-6e" transform="translate(610.400391 0.015625)"/>
     <use xlink:href="#DejaVuSans-63" transform="translate(673.779297 0.015625)"/>
     <use xlink:href="#DejaVuSans-6c" transform="translate(728.759766 0.015625)"/>
     <use xlink:href="#DejaVuSans-75" transform="translate(756.542969 0.015625)"/>
     <use xlink:href="#DejaVuSans-73" transform="translate(819.921875 0.015625)"/>
     <use xlink:href="#DejaVuSans-69" transform="translate(872.021484 0.015625)"/>
     <use xlink:href="#DejaVuSans-6f" transform="translate(899.804688 0.015625)"/>
     <use xlink:href="#DejaVuSans-6e" transform="translate(960.986328 0.015625)"/>
     <use xlink:href="#DejaVuSans-20" transform="translate(1024.365234 0.015625)"/>
     <use xlink:href="#DejaVuSans-50" transform="translate(1056.152344 0.015625)"/>
     <use xlink:href="#DejaVuSans-72" transform="translate(1116.455078 0.015625)"/>
     <use xlink:href="#DejaVuSans-6f" transform="translate(1157.568359 0.015625)"/>
     <use xlink:href="#DejaVuSans-62" transform="translate(1218.75 0.015625)"/>
     <use xlink:href="#DejaVuSans-61" transform="translate(1282.226562 0.015625)"/>
     <use xlink:href="#DejaVuSans-62" transform="translate(1343.505859 0.015625)"/>
     <use xlink:href="#DejaVuSans-69" transform="translate(1406.982422 0.015625)"/>
     <use xlink:href="#DejaVuSans-6c" transform="translate(1434.765625 0.015625)"/>
     <use xlink:href="#DejaVuSans-69" transform="translate(1462.548828 0.015625)"/>
     <use xlink:href="#DejaVuSans-74" transform="translate(1490.332031 0.015625)"/>
     <use xlink:href="#DejaVuSans-69" transform="translate(1529.541016 0.015625)"/>
     <use xlink:href="#DejaVuSans-65" transform="translate(1557.324219 0.015625)"/>
     <use xlink:href="#DejaVuSans-73" transform="translate(1618.847656 0.015625)"/>
     <use xlink:href="#DejaVuSans-20" transform="translate(1670.947266 0.015625)"/>
     <use xlink:href="#DejaVuSans-Oblique-3c0" transform="translate(1702.734375 0.015625)"/>
    </g>
   </g>
   <g id="legend_1">
    <g id="line2d_43">
     <path d="M 52.678125 32.03875 
L 60.678125 32.03875 
L 68.678125 32.03875 
" style="fill: none; stroke-dasharray: 9.6,2.4,1.5,2.4; stroke-dashoffset: 0; stroke: #ff9800; stroke-width: 1.5"/>
     <g>
      <use xlink:href="#mded448f59f" x="60.678125" y="32.03875" style="fill: #ff9800; stroke: #ff9800; stroke-linejoin: miter"/>
     </g>
    </g>
    <g id="text_9">
     <!-- R:sampling (pi)  R sampling -->
     <g transform="translate(75.078125 34.83875) scale(0.08 -0.08)">
      <defs>
       <path id="DejaVuSans-52" d="M 2841 2188 
Q 3044 2119 3236 1894 
Q 3428 1669 3622 1275 
L 4263 0 
L 3584 0 
L 2988 1197 
Q 2756 1666 2539 1819 
Q 2322 1972 1947 1972 
L 1259 1972 
L 1259 0 
L 628 0 
L 628 4666 
L 2053 4666 
Q 2853 4666 3247 4331 
Q 3641 3997 3641 3322 
Q 3641 2881 3436 2590 
Q 3231 2300 2841 2188 
z
M 1259 4147 
L 1259 2491 
L 2053 2491 
Q 2509 2491 2742 2702 
Q 2975 2913 2975 3322 
Q 2975 3731 2742 3939 
Q 2509 4147 2053 4147 
L 1259 4147 
z
" transform="scale(0.015625)"/>
       <path id="DejaVuSans-3a" d="M 750 794 
L 1409 794 
L 1409 0 
L 750 0 
L 750 794 
z
M 750 3309 
L 1409 3309 
L 1409 2516 
L 750 2516 
L 750 3309 
z
" transform="scale(0.015625)"/>
      </defs>
      <use xlink:href="#DejaVuSans-52"/>
      <use xlink:href="#DejaVuSans-3a" transform="translate(66.357422 0)"/>
      <use xlink:href="#DejaVuSans-73" transform="translate(100.048828 0)"/>
      <use xlink:href="#DejaVuSans-61" transform="translate(152.148438 0)"/>
      <use xlink:href="#DejaVuSans-6d" transform="translate(213.427734 0)"/>
      <use xlink:href="#DejaVuSans-70" transform="translate(310.839844 0)"/>
      <use xlink:href="#DejaVuSans-6c" transform="translate(374.316406 0)"/>
      <use xlink:href="#DejaVuSans-69" transform="translate(402.099609 0)"/>
      <use xlink:href="#DejaVuSans-6e" transform="translate(429.882812 0)"/>
      <use xlink:href="#DejaVuSans-67" transform="translate(493.261719 0)"/>
      <use xlink:href="#DejaVuSans-20" transform="translate(556.738281 0)"/>
      <use xlink:href="#DejaVuSans-28" transform="translate(588.525391 0)"/>
      <use xlink:href="#DejaVuSans-70" transform="translate(627.539062 0)"/>
      <use xlink:href="#DejaVuSans-69" transform="translate(691.015625 0)"/>
      <use xlink:href="#DejaVuSans-29" transform="translate(718.798828 0)"/>
      <use xlink:href="#DejaVuSans-20" transform="translate(757.8125 0)"/>
      <use xlink:href="#DejaVuSans-20" transform="translate(789.599609 0)"/>
      <use xlink:href="#DejaVuSans-52" transform="translate(821.386719 0)"/>
      <use xlink:href="#DejaVuSans-20" transform="translate(890.869141 0)"/>
      <use xlink:href="#DejaVuSans-73" transform="translate(922.65625 0)"/>
      <use xlink:href="#DejaVuSans-61" transform="translate(974.755859 0)"/>
      <use xlink:href="#DejaVuSans-6d" transform="translate(1036.035156 0)"/>
      <use xlink:href="#DejaVuSans-70" transform="translate(1133.447266 0)"/>
      <use xlink:href="#DejaVuSans-6c" transform="translate(1196.923828 0)"/>
      <use xlink:href="#DejaVuSans-69" transform="translate(1224.707031 0)"/>
      <use xlink:href="#DejaVuSans-6e" transform="translate(1252.490234 0)"/>
      <use xlink:href="#DejaVuSans-67" transform="translate(1315.869141 0)"/>
     </g>
    </g>
    <g id="line2d_44">
     <path d="M 52.678125 44.9825 
L 60.678125 44.9825 
L 68.678125 44.9825 
" style="fill: none; stroke: #5b9bd5; stroke-width: 2; stroke-linecap: square"/>
     <g>
      <use xlink:href="#m4201f3b691" x="60.678125" y="44.9825" style="fill: #5b9bd5; stroke: #5b9bd5"/>
     </g>
    </g>
    <g id="text_10">
     <!-- NumPy tree + backprop  $\mathcal{O}(N \log^2 N)$ -->
     <g transform="translate(75.078125 47.7825) scale(0.08 -0.08)">
      <defs>
       <path id="DejaVuSans-4e" d="M 628 4666 
L 1478 4666 
L 3547 763 
L 3547 4666 
L 4159 4666 
L 4159 0 
L 3309 0 
L 1241 3903 
L 1241 0 
L 628 0 
L 628 4666 
z
" transform="scale(0.015625)"/>
       <path id="DejaVuSans-79" d="M 2059 -325 
Q 1816 -950 1584 -1140 
Q 1353 -1331 966 -1331 
L 506 -1331 
L 506 -850 
L 844 -850 
Q 1081 -850 1212 -737 
Q 1344 -625 1503 -206 
L 1606 56 
L 191 3500 
L 800 3500 
L 1894 763 
L 2988 3500 
L 3597 3500 
L 2059 -325 
z
" transform="scale(0.015625)"/>
       <path id="DejaVuSans-2b" d="M 2944 4013 
L 2944 2272 
L 4684 2272 
L 4684 1741 
L 2944 1741 
L 2944 0 
L 2419 0 
L 2419 1741 
L 678 1741 
L 678 2272 
L 2419 2272 
L 2419 4013 
L 2944 4013 
z
" transform="scale(0.015625)"/>
       <path id="DejaVuSans-6b" d="M 581 4863 
L 1159 4863 
L 1159 1991 
L 2875 3500 
L 3609 3500 
L 1753 1863 
L 3688 0 
L 2938 0 
L 1159 1709 
L 1159 0 
L 581 0 
L 581 4863 
z
" transform="scale(0.015625)"/>
       <path id="STIXNonUnicode-Italic-e23b" d="M 2304 4237 
L 2342 4090 
Q 1773 3923 1350 3158 
Q 928 2394 928 1472 
Q 928 838 1216 515 
Q 1504 192 1984 192 
Q 2349 192 2739 435 
Q 3130 678 3430 1101 
Q 3968 1862 3968 2944 
Q 3968 3398 3744 3660 
Q 3520 3923 3219 3923 
Q 2918 3923 2691 3728 
Q 2464 3533 2464 3232 
Q 2464 2995 2694 2995 
Q 2714 2995 2784 3011 
Q 2854 3027 2918 3027 
Q 3104 3027 3104 2816 
Q 3104 2637 2944 2496 
Q 2784 2355 2592 2355 
Q 2323 2355 2179 2534 
Q 2035 2714 2035 2995 
Q 2035 3475 2505 3878 
Q 2976 4282 3571 4282 
Q 4096 4282 4381 3882 
Q 4666 3482 4666 2938 
Q 4666 2400 4422 1837 
Q 4179 1274 3808 877 
Q 2931 -64 1754 -64 
Q 1101 -64 672 304 
Q 243 672 243 1363 
Q 243 1933 435 2457 
Q 627 2982 931 3347 
Q 1235 3712 1596 3949 
Q 1958 4186 2304 4237 
z
" transform="scale(0.015625)"/>
      </defs>
      <use xlink:href="#DejaVuSans-4e" transform="translate(0 0.765625)"/>
      <use xlink:href="#DejaVuSans-75" transform="translate(74.804688 0.765625)"/>
      <use xlink:href="#DejaVuSans-6d" transform="translate(138.183594 0.765625)"/>
      <use xlink:href="#DejaVuSans-50" transform="translate(235.595703 0.765625)"/>
      <use xlink:href="#DejaVuSans-79" transform="translate(295.898438 0.765625)"/>
      <use xlink:href="#DejaVuSans-20" transform="translate(355.078125 0.765625)"/>
      <use xlink:href="#DejaVuSans-74" transform="translate(386.865234 0.765625)"/>
      <use xlink:href="#DejaVuSans-72" transform="translate(426.074219 0.765625)"/>
      <use xlink:href="#DejaVuSans-65" transform="translate(467.1875 0.765625)"/>
      <use xlink:href="#DejaVuSans-65" transform="translate(528.710938 0.765625)"/>
      <use xlink:href="#DejaVuSans-20" transform="translate(590.234375 0.765625)"/>
      <use xlink:href="#DejaVuSans-2b" transform="translate(622.021484 0.765625)"/>
      <use xlink:href="#DejaVuSans-20" transform="translate(705.810547 0.765625)"/>
      <use xlink:href="#DejaVuSans-62" transform="translate(737.597656 0.765625)"/>
      <use xlink:href="#DejaVuSans-61" transform="translate(801.074219 0.765625)"/>
      <use xlink:href="#DejaVuSans-63" transform="translate(862.353516 0.765625)"/>
      <use xlink:href="#DejaVuSans-6b" transform="translate(917.333984 0.765625)"/>
      <use xlink:href="#DejaVuSans-70" transform="translate(975.244141 0.765625)"/>
      <use xlink:href="#DejaVuSans-72" transform="translate(1038.720703 0.765625)"/>
      <use xlink:href="#DejaVuSans-6f" transform="translate(1079.833984 0.765625)"/>
      <use xlink:href="#DejaVuSans-70" transform="translate(1141.015625 0.765625)"/>
      <use xlink:href="#DejaVuSans-20" transform="translate(1204.492188 0.765625)"/>
      <use xlink:href="#DejaVuSans-20" transform="translate(1236.279297 0.765625)"/>
      <use xlink:href="#STIXNonUnicode-Italic-e23b" transform="translate(1268.066406 0.765625)"/>
      <use xlink:href="#DejaVuSans-28" transform="translate(1341.766388 0.765625)"/>
      <use xlink:href="#DejaVuSans-Oblique-4e" transform="translate(1380.78006 0.765625)"/>
      <use xlink:href="#DejaVuSans-6c" transform="translate(1455.584747 0.765625)"/>
      <use xlink:href="#DejaVuSans-6f" transform="translate(1483.36795 0.765625)"/>
      <use xlink:href="#DejaVuSans-67" transform="translate(1544.549591 0.765625)"/>
      <use xlink:href="#DejaVuSans-32" transform="translate(1608.983185 39.046875) scale(0.7)"/>
      <use xlink:href="#DejaVuSans-Oblique-4e" transform="translate(1672.489369 0.765625)"/>
      <use xlink:href="#DejaVuSans-29" transform="translate(1747.294056 0.765625)"/>
     </g>
    </g>
    <g id="line2d_45">
     <path d="M 52.678125 57.9425 
L 60.678125 57.9425 
L 68.678125 57.9425 
" style="fill: none; stroke: #c0504d; stroke-width: 2; stroke-linecap: square"/>
     <g>
      <use xlink:href="#mc38ec7a924" x="60.678125" y="57.9425" style="fill: #c0504d; stroke: #c0504d; stroke-linejoin: miter"/>
     </g>
    </g>
    <g id="text_11">
     <!-- PyTorch FFT + autograd  $\mathcal{O}(N \log^2 n)$ -->
     <g transform="translate(75.078125 60.7425) scale(0.08 -0.08)">
      <defs>
       <path id="DejaVuSans-54" d="M -19 4666 
L 3928 4666 
L 3928 4134 
L 2272 4134 
L 2272 0 
L 1638 0 
L 1638 4134 
L -19 4134 
L -19 4666 
z
" transform="scale(0.015625)"/>
       <path id="DejaVuSans-68" d="M 3513 2113 
L 3513 0 
L 2938 0 
L 2938 2094 
Q 2938 2591 2744 2837 
Q 2550 3084 2163 3084 
Q 1697 3084 1428 2787 
Q 1159 2491 1159 1978 
L 1159 0 
L 581 0 
L 581 4863 
L 1159 4863 
L 1159 2956 
Q 1366 3272 1645 3428 
Q 1925 3584 2291 3584 
Q 2894 3584 3203 3211 
Q 3513 2838 3513 2113 
z
" transform="scale(0.015625)"/>
       <path id="DejaVuSans-46" d="M 628 4666 
L 3309 4666 
L 3309 4134 
L 1259 4134 
L 1259 2759 
L 3109 2759 
L 3109 2228 
L 1259 2228 
L 1259 0 
L 628 0 
L 628 4666 
z
" transform="scale(0.015625)"/>
       <path id="DejaVuSans-64" d="M 2906 2969 
L 2906 4863 
L 3481 4863 
L 3481 0 
L 2906 0 
L 2906 525 
Q 2725 213 2448 61 
Q 2172 -91 1784 -91 
Q 1150 -91 751 415 
Q 353 922 353 1747 
Q 353 2572 751 3078 
Q 1150 3584 1784 3584 
Q 2172 3584 2448 3432 
Q 2725 3281 2906 2969 
z
M 947 1747 
Q 947 1113 1208 752 
Q 1469 391 1925 391 
Q 2381 391 2643 752 
Q 2906 1113 2906 1747 
Q 2906 2381 2643 2742 
Q 2381 3103 1925 3103 
Q 1469 3103 1208 2742 
Q 947 2381 947 1747 
z
" transform="scale(0.015625)"/>
       <path id="DejaVuSans-Oblique-6e" d="M 3566 2113 
L 3156 0 
L 2578 0 
L 2988 2091 
Q 3016 2238 3031 2350 
Q 3047 2463 3047 2528 
Q 3047 2791 2881 2937 
Q 2716 3084 2419 3084 
Q 1956 3084 1622 2776 
Q 1288 2469 1184 1941 
L 800 0 
L 225 0 
L 903 3500 
L 1478 3500 
L 1363 2950 
Q 1603 3253 1940 3418 
Q 2278 3584 2650 3584 
Q 3113 3584 3367 3334 
Q 3622 3084 3622 2631 
Q 3622 2519 3608 2391 
Q 3594 2263 3566 2113 
z
" transform="scale(0.015625)"/>
      </defs>
      <use xlink:href="#DejaVuSans-50" transform="translate(0 0.765625)"/>
      <use xlink:href="#DejaVuSans-79" transform="translate(60.302734 0.765625)"/>
      <use xlink:href="#DejaVuSans-54" transform="translate(119.482422 0.765625)"/>
      <use xlink:href="#DejaVuSans-6f" transform="translate(180.566406 0.765625)"/>
      <use xlink:href="#DejaVuSans-72" transform="translate(241.748047 0.765625)"/>
      <use xlink:href="#DejaVuSans-63" transform="translate(282.861328 0.765625)"/>
      <use xlink:href="#DejaVuSans-68" transform="translate(337.841797 0.765625)"/>
      <use xlink:href="#DejaVuSans-20" transform="translate(401.220703 0.765625)"/>
      <use xlink:href="#DejaVuSans-46" transform="translate(433.007812 0.765625)"/>
      <use xlink:href="#DejaVuSans-46" transform="translate(490.527344 0.765625)"/>
      <use xlink:href="#DejaVuSans-54" transform="translate(548.046875 0.765625)"/>
      <use xlink:href="#DejaVuSans-20" transform="translate(609.130859 0.765625)"/>
      <use xlink:href="#DejaVuSans-2b" transform="translate(640.917969 0.765625)"/>
      <use xlink:href="#DejaVuSans-20" transform="translate(724.707031 0.765625)"/>
      <use xlink:href="#DejaVuSans-61" transform="translate(756.494141 0.765625)"/>
      <use xlink:href="#DejaVuSans-75" transform="translate(817.773438 0.765625)"/>
      <use xlink:href="#DejaVuSans-74" transform="translate(881.152344 0.765625)"/>
      <use xlink:href="#DejaVuSans-6f" transform="translate(920.361328 0.765625)"/>
      <use xlink:href="#DejaVuSans-67" transform="translate(981.542969 0.765625)"/>
      <use xlink:href="#DejaVuSans-72" transform="translate(1045.019531 0.765625)"/>
      <use xlink:href="#DejaVuSans-61" transform="translate(1086.132812 0.765625)"/>
      <use xlink:href="#DejaVuSans-64" transform="translate(1147.412109 0.765625)"/>
      <use xlink:href="#DejaVuSans-20" transform="translate(1210.888672 0.765625)"/>
      <use xlink:href="#DejaVuSans-20" transform="translate(1242.675781 0.765625)"/>
      <use xlink:href="#STIXNonUnicode-Italic-e23b" transform="translate(1274.462891 0.765625)"/>
      <use xlink:href="#DejaVuSans-28" transform="translate(1348.162872 0.765625)"/>
      <use xlink:href="#DejaVuSans-Oblique-4e" transform="translate(1387.176544 0.765625)"/>
      <use xlink:href="#DejaVuSans-6c" transform="translate(1461.981232 0.765625)"/>
      <use xlink:href="#DejaVuSans-6f" transform="translate(1489.764435 0.765625)"/>
      <use xlink:href="#DejaVuSans-67" transform="translate(1550.946075 0.765625)"/>
      <use xlink:href="#DejaVuSans-32" transform="translate(1615.379669 39.046875) scale(0.7)"/>
      <use xlink:href="#DejaVuSans-Oblique-6e" transform="translate(1678.885853 0.765625)"/>
      <use xlink:href="#DejaVuSans-29" transform="translate(1742.26476 0.765625)"/>
     </g>
    </g>
    <g id="line2d_46">
     <path d="M 52.678125 69.70125 
L 60.678125 69.70125 
L 68.678125 69.70125 
" style="fill: none; stroke: #808080; stroke-linecap: square"/>
     <g>
      <use xlink:href="#m725564e314" x="60.678125" y="69.70125" style="fill: #808080; stroke: #808080"/>
     </g>
    </g>
    <g id="text_12">
     <!-- Sequential DP -->
     <g transform="translate(75.078125 72.50125) scale(0.08 -0.08)">
      <defs>
       <path id="DejaVuSans-53" d="M 3425 4513 
L 3425 3897 
Q 3066 4069 2747 4153 
Q 2428 4238 2131 4238 
Q 1616 4238 1336 4038 
Q 1056 3838 1056 3469 
Q 1056 3159 1242 3001 
Q 1428 2844 1947 2747 
L 2328 2669 
Q 3034 2534 3370 2195 
Q 3706 1856 3706 1288 
Q 3706 609 3251 259 
Q 2797 -91 1919 -91 
Q 1588 -91 1214 -16 
Q 841 59 441 206 
L 441 856 
Q 825 641 1194 531 
Q 1563 422 1919 422 
Q 2459 422 2753 634 
Q 3047 847 3047 1241 
Q 3047 1584 2836 1778 
Q 2625 1972 2144 2069 
L 1759 2144 
Q 1053 2284 737 2584 
Q 422 2884 422 3419 
Q 422 4038 858 4394 
Q 1294 4750 2059 4750 
Q 2388 4750 2728 4690 
Q 3069 4631 3425 4513 
z
" transform="scale(0.015625)"/>
       <path id="DejaVuSans-71" d="M 947 1747 
Q 947 1113 1208 752 
Q 1469 391 1925 391 
Q 2381 391 2643 752 
Q 2906 1113 2906 1747 
Q 2906 2381 2643 2742 
Q 2381 3103 1925 3103 
Q 1469 3103 1208 2742 
Q 947 2381 947 1747 
z
M 2906 525 
Q 2725 213 2448 61 
Q 2172 -91 1784 -91 
Q 1150 -91 751 415 
Q 353 922 353 1747 
Q 353 2572 751 3078 
Q 1150 3584 1784 3584 
Q 2172 3584 2448 3432 
Q 2725 3281 2906 2969 
L 2906 3500 
L 3481 3500 
L 3481 -1331 
L 2906 -1331 
L 2906 525 
z
" transform="scale(0.015625)"/>
       <path id="DejaVuSans-44" d="M 1259 4147 
L 1259 519 
L 2022 519 
Q 2988 519 3436 956 
Q 3884 1394 3884 2338 
Q 3884 3275 3436 3711 
Q 2988 4147 2022 4147 
L 1259 4147 
z
M 628 4666 
L 1925 4666 
Q 3281 4666 3915 4102 
Q 4550 3538 4550 2338 
Q 4550 1131 3912 565 
Q 3275 0 1925 0 
L 628 0 
L 628 4666 
z
" transform="scale(0.015625)"/>
      </defs>
      <use xlink:href="#DejaVuSans-53"/>
      <use xlink:href="#DejaVuSans-65" transform="translate(63.476562 0)"/>
      <use xlink:href="#DejaVuSans-71" transform="translate(125 0)"/>
      <use xlink:href="#DejaVuSans-75" transform="translate(188.476562 0)"/>
      <use xlink:href="#DejaVuSans-65" transform="translate(251.855469 0)"/>
      <use xlink:href="#DejaVuSans-6e" transform="translate(313.378906 0)"/>
      <use xlink:href="#DejaVuSans-74" transform="translate(376.757812 0)"/>
      <use xlink:href="#DejaVuSans-69" transform="translate(415.966797 0)"/>
      <use xlink:href="#DejaVuSans-61" transform="translate(443.75 0)"/>
      <use xlink:href="#DejaVuSans-6c" transform="translate(505.029297 0)"/>
      <use xlink:href="#DejaVuSans-20" transform="translate(532.8125 0)"/>
      <use xlink:href="#DejaVuSans-44" transform="translate(564.599609 0)"/>
      <use xlink:href="#DejaVuSans-50" transform="translate(641.601562 0)"/>
     </g>
    </g>
   </g>
  </g>
 </g>
 <defs>
  <clipPath id="pa24d121588">
   <rect x="45.478125" y="21.56" width="442.547239" height="251.848"/>
  </clipPath>
 </defs>
</svg>
